<svg width="512" height="307" viewBox="0 0 512 307" fill="none" xmlns="http://www.w3.org/2000/svg">
<g filter="url(#filter0_d_2017_3885)">
<path d="M375.958 80.5405H317.527C295.286 80.5405 277.257 62.5109 277.257 40.2702C277.257 18.0296 295.286 0 317.527 0H392.628C456.346 0 508 51.6537 508 115.372V209.33C508 258.795 467.9 298.895 418.435 298.895H368.246C346.499 298.895 328.87 281.266 328.87 259.519C328.87 237.773 346.499 220.144 368.246 220.144H404.773C427.409 220.144 445.76 201.793 445.76 179.157V150.342C445.76 111.792 414.509 80.5405 375.958 80.5405Z" fill="#CFF745"/>
<path d="M4 120.535V50.3496C4 23.5364 25.7363 1.80011 52.5495 1.80011C68.7005 1.80011 83.794 9.8319 92.8167 23.2277L111.419 50.8459C116.602 58.5418 119.371 67.6096 119.371 76.8884V99.217C119.371 112.631 108.497 123.506 95.0828 123.506H86.0072C77.6052 123.506 70.794 130.317 70.794 138.719C70.794 147.121 63.9828 153.932 55.5808 153.932H37.397C18.9524 153.932 4 138.98 4 120.535Z" fill="#CFF745"/>
<path d="M254.491 149.172V50.3496C254.491 23.5364 232.755 1.80011 205.942 1.80011C189.791 1.80011 174.697 9.8319 165.674 23.2277L147.072 50.8459C141.889 58.5418 139.12 67.6096 139.12 76.8884V99.217C139.12 112.631 149.994 123.506 163.408 123.506C176.823 123.506 187.697 134.38 187.697 147.795V153.037C187.697 169.347 200.919 182.569 217.229 182.569H221.094C239.539 182.569 254.491 167.616 254.491 149.172Z" fill="#CFF745"/>
<path d="M189.213 265.521V250.903C189.213 227.009 208.583 207.639 232.477 207.639C256.371 207.639 275.742 188.269 275.742 164.374V138.259C275.742 120.233 290.354 105.621 308.379 105.621C326.405 105.621 341.017 120.233 341.017 138.259V171.74C341.017 179.704 334.561 186.161 326.596 186.161C318.631 186.161 312.175 192.618 312.175 200.583V231.459C312.175 246.969 299.601 259.543 284.091 259.543H275.695C264.821 259.543 256.007 268.357 256.007 279.23C256.007 290.103 247.192 298.918 236.319 298.918H222.61C204.165 298.918 189.213 283.966 189.213 265.521Z" fill="#CFF745"/>
<path d="M48.6934 177.187H36.638C18.6125 177.187 4 191.799 4 209.825V247.007C4 274.674 26.4285 297.102 54.0955 297.102H64.8157C86.5621 297.102 104.191 279.474 104.191 257.727V235.809C104.191 226.168 96.375 218.352 86.7335 218.352C77.092 218.352 69.276 210.536 69.276 200.894V197.769C69.276 186.402 60.0608 177.187 48.6934 177.187Z" fill="#CFF745"/>
</g>
<defs>
<filter id="filter0_d_2017_3885" x="0" y="0" width="512" height="306.918" filterUnits="userSpaceOnUse" color-interpolation-filters="sRGB">
<feFlood flood-opacity="0" result="BackgroundImageFix"/>
<feColorMatrix in="SourceAlpha" type="matrix" values="0 0 0 0 0 0 0 0 0 0 0 0 0 0 0 0 0 0 127 0" result="hardAlpha"/>
<feOffset dy="4"/>
<feGaussianBlur stdDeviation="2"/>
<feComposite in2="hardAlpha" operator="out"/>
<feColorMatrix type="matrix" values="0 0 0 0 0 0 0 0 0 0 0 0 0 0 0 0 0 0 0.25 0"/>
<feBlend mode="normal" in2="BackgroundImageFix" result="effect1_dropShadow_2017_3885"/>
<feBlend mode="normal" in="SourceGraphic" in2="effect1_dropShadow_2017_3885" result="shape"/>
</filter>
</defs>
</svg>
