<svg width="41" height="24" viewBox="0 0 41 24" fill="none" xmlns="http://www.w3.org/2000/svg">
<path d="M29.8644 6.46679H25.1728C23.3871 6.46679 21.9395 5.01916 21.9395 3.23341C21.9395 1.44766 23.3871 2.67029e-05 25.1728 2.67029e-05H31.2029C36.3189 2.67029e-05 40.4663 4.14739 40.4663 9.26344V16.8076C40.4663 20.7792 37.2466 23.9989 33.2749 23.9989H29.2451C27.4991 23.9989 26.0836 22.5834 26.0836 20.8374C26.0836 19.0913 27.4991 17.6758 29.2451 17.6758H32.178C33.9955 17.6758 35.4689 16.2024 35.4689 14.3849V12.0713C35.4689 8.97602 32.9597 6.46679 29.8644 6.46679Z" fill="#CFF745"/>
<path d="M0 9.67772V4.04238C0 1.8895 1.74526 0.144241 3.89814 0.144241C5.19493 0.144241 6.40683 0.789128 7.13128 1.8647L8.62489 4.08223C9.04109 4.70015 9.26342 5.42822 9.26342 6.17324V7.96605C9.26342 9.04311 8.39028 9.91624 7.31322 9.91624H6.58453C5.90991 9.91624 5.36303 10.4631 5.36303 11.1377C5.36303 11.8124 4.81615 12.3592 4.14153 12.3592H2.68152C1.20056 12.3592 0 11.1587 0 9.67772Z" fill="#CFF745"/>
<path d="M20.1113 11.977V4.04238C20.1113 1.8895 18.3661 0.144241 16.2132 0.144241C14.9164 0.144241 13.7045 0.789128 12.9801 1.8647L11.4864 4.08223C11.0702 4.70015 10.8479 5.42822 10.8479 6.17324V7.96605C10.8479 9.04311 11.721 9.91624 12.7981 9.91624C13.8752 9.91624 14.7483 10.7894 14.7483 11.8664V12.2874C14.7483 13.5969 15.8099 14.6585 17.1194 14.6585H17.4298C18.9108 14.6585 20.1113 13.458 20.1113 11.977Z" fill="#CFF745"/>
<path d="M14.8701 21.3185V20.1448C14.8701 18.2263 16.4254 16.671 18.3439 16.671C20.2624 16.671 21.8177 15.1158 21.8177 13.1972V11.1004C21.8177 9.65306 22.9909 8.47979 24.4383 8.47979C25.8856 8.47979 27.0588 9.65306 27.0588 11.1004V13.7886C27.0588 14.4281 26.5404 14.9466 25.9009 14.9466C25.2614 14.9466 24.743 15.465 24.743 16.1045V18.5836C24.743 19.8289 23.7334 20.8385 22.4881 20.8385H21.8139C20.9409 20.8385 20.2331 21.5462 20.2331 22.4193C20.2331 23.2923 19.5254 24 18.6524 24H17.5516C16.0707 24 14.8701 22.7995 14.8701 21.3185Z" fill="#CFF745"/>
<path d="M3.58853 14.2262H2.62057C1.17327 14.2262 0 15.3994 0 16.8467V19.8322C0 22.0536 1.80083 23.8545 4.02227 23.8545H4.88302C6.62908 23.8545 8.04455 22.439 8.04455 20.6929V18.9331C8.04455 18.159 7.41698 17.5314 6.64284 17.5314C5.86871 17.5314 5.24114 16.9038 5.24114 16.1297V15.8788C5.24114 14.9661 4.50124 14.2262 3.58853 14.2262Z" fill="#CFF745"/>
</svg>
