<svg width="20" height="21" viewBox="0 0 20 21" fill="none" xmlns="http://www.w3.org/2000/svg">
<path fill-rule="evenodd" clip-rule="evenodd" d="M0 2.125C0 0.9514 0.9514 0 2.125 0H11.875C13.0486 0 14 0.9514 14 2.125V7.05147C14 7.39665 13.7202 7.67647 13.375 7.67647C13.0298 7.67647 12.75 7.39665 12.75 7.05147V2.125C12.75 1.64175 12.3582 1.25 11.875 1.25H2.125C1.64175 1.25 1.25 1.64175 1.25 2.125V18.125C1.25 18.6082 1.64175 19 2.125 19H11.875C12.3582 19 12.75 18.6082 12.75 18.125V13.6177C12.75 13.2725 13.0298 12.9927 13.375 12.9927C13.7202 12.9927 14 13.2725 14 13.6177V18.125C14 19.2986 13.0486 20.25 11.875 20.25H2.125C0.9514 20.25 0 19.2986 0 18.125V2.125ZM16.1831 13.0669C16.4271 13.311 16.8229 13.311 17.0669 13.0669L18.7715 11.3624C19.4549 10.679 19.4549 9.57098 18.7715 8.88758L17.0669 7.18305C16.8229 6.93898 16.4271 6.93898 16.1831 7.18305C15.939 7.42712 15.939 7.82288 16.1831 8.06695L17.8876 9.77145C18.0828 9.9667 18.0828 10.2833 17.8876 10.4785L16.1831 12.1831C15.939 12.4271 15.939 12.8229 16.1831 13.0669ZM9.125 9.5C8.77983 9.5 8.5 9.77983 8.5 10.125C8.5 10.4702 8.77983 10.75 9.125 10.75H15.875C16.2202 10.75 16.5 10.4702 16.5 10.125C16.5 9.77983 16.2202 9.5 15.875 9.5H9.125Z" fill="#2E2A31"/>
</svg>
