<svg width="15" height="18" viewBox="0 0 15 18" fill="none" xmlns="http://www.w3.org/2000/svg">
<path d="M10.2445 4.54185C10.2445 4.70973 10.233 4.87762 10.2121 5.04359C10.2216 4.97682 10.2311 4.90814 10.2388 4.84137C10.193 5.17332 10.1052 5.49573 9.97741 5.80479C10.0022 5.74374 10.0289 5.68269 10.0537 5.62164C9.9259 5.92307 9.76183 6.20541 9.56152 6.46487L9.68171 6.31034C9.4833 6.56598 9.25246 6.79682 8.99682 6.99522L9.15135 6.87504C8.8919 7.07344 8.60955 7.23942 8.30812 7.36724C8.36917 7.34244 8.43022 7.31573 8.49127 7.29093C8.18221 7.41875 7.8598 7.5065 7.52785 7.55229C7.59462 7.54275 7.6633 7.53321 7.73007 7.52558C7.39622 7.56946 7.06045 7.56946 6.72659 7.52558C6.79337 7.53512 6.86204 7.54466 6.92882 7.55229C6.59687 7.5065 6.27446 7.41875 5.9654 7.29093C6.02645 7.31573 6.0875 7.34244 6.14854 7.36724C5.84712 7.23942 5.56477 7.07535 5.30532 6.87504L5.45984 6.99522C5.20421 6.79682 4.97337 6.56598 4.77496 6.31034L4.89515 6.46487C4.69674 6.20541 4.53077 5.92307 4.40295 5.62164C4.42775 5.68269 4.45446 5.74374 4.47926 5.80479C4.35144 5.49573 4.26368 5.17332 4.2179 4.84137C4.22744 4.90814 4.23697 4.97682 4.24461 5.04359C4.20073 4.70973 4.20073 4.37397 4.24461 4.04011C4.23507 4.10688 4.22553 4.17556 4.2179 4.24234C4.26368 3.91039 4.35144 3.58798 4.47926 3.27892C4.45446 3.33997 4.42775 3.40102 4.40295 3.46206C4.53077 3.16064 4.69484 2.87829 4.89515 2.61884L4.77496 2.77336C4.97337 2.51773 5.20421 2.28689 5.45984 2.08848L5.30532 2.20867C5.56477 2.01026 5.84712 1.84429 6.14854 1.71647C6.0875 1.74127 6.02645 1.76798 5.9654 1.79278C6.27446 1.66496 6.59687 1.5772 6.92882 1.53142C6.86204 1.54095 6.79337 1.55049 6.72659 1.55812C7.06045 1.51425 7.39622 1.51425 7.73007 1.55812C7.6633 1.54859 7.59462 1.53905 7.52785 1.53142C7.8598 1.5772 8.18221 1.66496 8.49127 1.79278C8.43022 1.76798 8.36917 1.74127 8.30812 1.71647C8.60955 1.84429 8.8919 2.00835 9.15135 2.20867L8.99682 2.08848C9.25246 2.28689 9.4833 2.51773 9.68171 2.77336L9.56152 2.61884C9.75992 2.87829 9.9259 3.16064 10.0537 3.46206C10.0289 3.40102 10.0022 3.33997 9.97741 3.27892C10.1052 3.58798 10.193 3.91039 10.2388 4.24234C10.2292 4.17556 10.2197 4.10688 10.2121 4.04011C10.233 4.20609 10.2426 4.37397 10.2445 4.54185C10.2464 4.94057 10.5936 5.32403 11.0076 5.30495C11.4197 5.28588 11.7726 4.96919 11.7707 4.54185C11.7669 3.62804 11.4922 2.69324 10.9542 1.94921C10.8092 1.7489 10.6547 1.5524 10.483 1.37498C10.3094 1.19565 10.1186 1.04112 9.92017 0.890411C9.55961 0.615694 9.15707 0.413472 8.72974 0.257036C7.00703 -0.374431 4.92949 0.188357 3.76385 1.60773C3.6036 1.80232 3.45098 2.00454 3.32125 2.22202C3.19152 2.4376 3.09041 2.66653 2.99693 2.89928C2.82142 3.33043 2.73176 3.78829 2.69551 4.25187C2.62492 5.15997 2.86148 6.10812 3.33461 6.88648C3.79056 7.63814 4.47926 8.28296 5.28433 8.64734C5.52089 8.75418 5.76318 8.85338 6.015 8.92396C6.26492 8.99264 6.51865 9.0308 6.7762 9.06132C7.2455 9.11665 7.72435 9.07849 8.18793 8.98501C9.94879 8.62636 11.4235 7.10969 11.6963 5.32976C11.7364 5.0703 11.7669 4.81085 11.7669 4.54758C11.7688 4.14886 11.4139 3.7654 11.0038 3.78447C10.5917 3.79783 10.2445 4.11452 10.2445 4.54185ZM12.7761 16.471H2.98739C2.55433 16.471 2.12127 16.4749 1.68821 16.471C1.64052 16.471 1.59283 16.4672 1.54704 16.4615C1.61381 16.471 1.68249 16.4806 1.74926 16.4882C1.67295 16.4768 1.60046 16.4558 1.52987 16.4272C1.59092 16.452 1.65197 16.4787 1.71301 16.5035C1.6367 16.471 1.56612 16.4291 1.49935 16.3776L1.65387 16.4977C1.59664 16.4501 1.54322 16.3985 1.49744 16.3413L1.61763 16.4958C1.56612 16.4291 1.52605 16.3585 1.49171 16.2822C1.51652 16.3432 1.54322 16.4043 1.56803 16.4653C1.53941 16.3947 1.52033 16.3203 1.50698 16.2459C1.51652 16.3127 1.52605 16.3814 1.53369 16.4481C1.50316 16.2173 1.52415 15.9731 1.52415 15.7404V14.9239C1.52415 14.7197 1.53559 14.5175 1.5623 14.3153C1.55276 14.3821 1.54322 14.4507 1.53559 14.5175C1.58901 14.1264 1.69203 13.743 1.84656 13.3786C1.82176 13.4396 1.79505 13.5007 1.77025 13.5617C1.91905 13.2145 2.10983 12.8883 2.34067 12.5888L2.22048 12.7433C2.45132 12.4476 2.71649 12.1805 3.0141 11.9497L2.85958 12.0699C3.15909 11.839 3.48532 11.6482 3.83253 11.4994C3.77148 11.5242 3.71043 11.5509 3.64939 11.5757C4.01377 11.4231 4.39532 11.3182 4.78832 11.2648C4.72154 11.2743 4.65286 11.2839 4.58609 11.2915C4.86844 11.2552 5.14888 11.2533 5.43314 11.2533H8.92433C9.23911 11.2533 9.55198 11.2514 9.86676 11.2915C9.79999 11.2819 9.73131 11.2724 9.66454 11.2648C10.0556 11.3182 10.4391 11.4212 10.8035 11.5757C10.7424 11.5509 10.6814 11.5242 10.6203 11.4994C10.9675 11.6482 11.2938 11.839 11.5933 12.0699L11.4387 11.9497C11.7344 12.1805 12.0015 12.4457 12.2324 12.7433L12.1122 12.5888C12.343 12.8883 12.5338 13.2145 12.6826 13.5617C12.6578 13.5007 12.6311 13.4396 12.6063 13.3786C12.7589 13.743 12.8638 14.1245 12.9173 14.5175C12.9077 14.4507 12.8982 14.3821 12.8905 14.3153C12.9268 14.6033 12.9287 14.8895 12.9287 15.1795V16.1238C12.9287 16.2326 12.9325 16.3413 12.9192 16.4481C12.9287 16.3814 12.9382 16.3127 12.9459 16.2459C12.9344 16.3222 12.9134 16.3947 12.8848 16.4653C12.9096 16.4043 12.9363 16.3432 12.9611 16.2822C12.9287 16.3585 12.8867 16.4291 12.8352 16.4958L12.9554 16.3413C12.9077 16.3985 12.8562 16.452 12.799 16.4977L12.9535 16.3776C12.8867 16.4291 12.8161 16.4691 12.7398 16.5035C12.8009 16.4787 12.8619 16.452 12.923 16.4272C12.8524 16.4558 12.778 16.4749 12.7036 16.4882C12.7704 16.4787 12.839 16.4691 12.9058 16.4615C12.8638 16.4672 12.82 16.4691 12.7761 16.471C12.5796 16.4729 12.3774 16.555 12.2362 16.6943C12.1046 16.8259 12.0034 17.0434 12.013 17.2341C12.0321 17.6424 12.3487 18.003 12.7761 17.9972C13.5182 17.9858 14.1707 17.5012 14.3881 16.7896C14.474 16.5073 14.4549 16.204 14.4549 15.914C14.4549 15.2501 14.4759 14.5919 14.3614 13.9337C14.1935 12.9703 13.709 12.0641 13.0451 11.3525C12.3812 10.6409 11.4883 10.1182 10.544 9.88547C10.0022 9.75193 9.45659 9.73095 8.90334 9.73095H5.51898C4.95238 9.73095 4.38959 9.75765 3.83825 9.90455C2.90155 10.1526 2.02016 10.681 1.36962 11.3983C0.713351 12.1214 0.23832 13.0295 0.083792 13.9986C-0.0192268 14.6491 0.00175845 15.3016 0.00175845 15.9579C0.00175845 16.2593 -0.0154113 16.5741 0.0933307 16.8621C0.234505 17.2322 0.45962 17.5241 0.789661 17.7435C1.04721 17.9133 1.37343 17.9953 1.67868 17.9992C1.82748 18.0011 1.97628 17.9992 2.12509 17.9992H12.778C13.1767 17.9992 13.5602 17.6481 13.5411 17.2361C13.522 16.8202 13.2053 16.471 12.7761 16.471Z" fill="white"/>
</svg>
