<svg width="24" height="25" viewBox="0 0 24 25" fill="none" xmlns="http://www.w3.org/2000/svg">
<path d="M12.1592 9.9509V14.661H18.7046C18.4172 16.1757 17.5547 17.4583 16.2611 18.3207L20.2082 21.3834C22.508 19.2606 23.8348 16.1426 23.8348 12.4387C23.8348 11.5763 23.7574 10.747 23.6136 9.95103L12.1592 9.9509Z" fill="#4285F4"/>
<path d="M5.34607 14.477L4.45584 15.1584L1.30469 17.6129C3.30591 21.5822 7.40756 24.3242 12.1618 24.3242C15.4455 24.3242 18.1985 23.2407 20.2109 21.3832L16.2637 18.3206C15.1802 19.0503 13.7981 19.4926 12.1618 19.4926C8.99968 19.4926 6.31303 17.3587 5.35104 14.484L5.34607 14.477Z" fill="#34A853"/>
<path d="M1.30457 6.71121C0.475379 8.34751 0 10.194 0 12.162C0 14.13 0.475379 15.9765 1.30457 17.6128C1.30457 17.6237 5.35132 14.4727 5.35132 14.4727C5.10807 13.743 4.9643 12.9691 4.9643 12.1619C4.9643 11.3546 5.10807 10.5807 5.35132 9.851L1.30457 6.71121Z" fill="#FBBC05"/>
<path d="M12.1621 4.84277C13.9532 4.84277 15.5453 5.46192 16.8168 6.65603L20.2996 3.17328C18.1878 1.20526 15.4459 3.05176e-05 12.1621 3.05176e-05C7.40781 3.05176e-05 3.30591 2.73098 1.30469 6.71133L5.35131 9.85137C6.31316 6.97666 8.99992 4.84277 12.1621 4.84277Z" fill="#EA4335"/>
</svg>
