<svg width="23" height="25" viewBox="0 0 23 25" fill="none" xmlns="http://www.w3.org/2000/svg">
<path d="M18.6132 12.386H17.878C17.8661 12.3868 17.8549 12.3919 17.8465 12.4003C17.838 12.4088 17.8329 12.42 17.8321 12.4319V14.7643C17.6715 14.8103 17.5105 14.8333 17.327 14.8333C16.8445 14.8333 16.7297 14.6841 16.7297 14.0405V12.4319C16.7288 12.42 16.7237 12.4088 16.7153 12.4003C16.7068 12.3919 16.6956 12.3868 16.6837 12.386H15.9491C15.9372 12.3868 15.926 12.3919 15.9175 12.4003C15.9091 12.4088 15.904 12.42 15.9032 12.4319V14.1211C15.9032 15.1778 16.2591 15.5803 17.1661 15.5803C17.6829 15.5803 18.2686 15.4424 18.6132 15.316C18.6245 15.3043 18.6359 15.293 18.6359 15.2814V12.4322C18.6588 12.4092 18.6359 12.3862 18.6132 12.3862V12.386ZM3.04209 12.3976H2.2956C2.27263 12.3976 2.26128 12.4089 2.26128 12.4319C2.14641 12.8914 1.90533 13.6727 1.58371 14.4887L0.837494 12.4205C0.825872 12.4089 0.814521 12.3976 0.802899 12.3976H0.0450613C0.0334397 12.3976 0.0220883 12.4089 0.0104666 12.4205C-0.000884712 12.4319 -0.000884712 12.4435 0.0104666 12.4549L1.13587 15.5343C1.03593 15.7448 0.928656 15.9517 0.81425 16.1546C0.73398 16.2924 0.665061 16.4303 0.596142 16.5797C0.584791 16.5914 0.584791 16.6027 0.596142 16.6143C0.607764 16.6257 0.619115 16.6373 0.630737 16.6373H1.44587C1.45749 16.6373 1.48047 16.6257 1.48047 16.6143C1.64997 16.2833 1.80702 15.946 1.95128 15.6033C2.43344 14.477 2.81236 13.42 3.09966 12.4549C3.09966 12.4435 3.09966 12.4319 3.08803 12.4205C3.06506 12.3976 3.05371 12.3976 3.04209 12.3976ZM5.71776 14.7643C5.71738 14.7584 5.71484 14.7527 5.71061 14.7485C5.70638 14.7443 5.70076 14.7417 5.69479 14.7414H5.6602C5.47641 14.8103 5.14344 14.8562 4.91371 14.8562C4.39722 14.8562 4.15587 14.7184 4.15587 13.9373C4.15587 13.3051 4.23641 13.0178 4.91371 13.0178C5.10911 13.0178 5.28128 13.0408 5.51101 13.1097C5.53398 13.1097 5.54533 13.1097 5.55695 13.0868L5.85533 12.4895V12.4549C5.85495 12.4489 5.85241 12.4433 5.84818 12.4391C5.84395 12.4348 5.83833 12.4323 5.83236 12.4319C5.51585 12.3357 5.1872 12.2854 4.85641 12.2824C3.78857 12.2824 3.30614 12.7881 3.30614 13.9257C3.30614 15.0746 3.78857 15.5916 4.85641 15.5916C5.12047 15.5916 5.6602 15.5343 5.9129 15.4308C5.93587 15.4192 5.94722 15.3962 5.93587 15.3733L5.71776 14.7643ZM12.7107 12.3976H11.9645C11.9415 12.3976 11.9299 12.4089 11.9299 12.4319C11.8151 12.903 11.574 13.6727 11.2524 14.4887L10.5061 12.4205C10.4945 12.4089 10.4832 12.3976 10.4715 12.3976H9.71371C9.70236 12.3976 9.69074 12.4089 9.67939 12.4205C9.66776 12.4319 9.66776 12.4435 9.67939 12.4549L10.8045 15.5343C10.7046 15.7448 10.5973 15.9517 10.4829 16.1546C10.4026 16.2924 10.3337 16.4303 10.2648 16.5797C10.2534 16.5914 10.2534 16.6027 10.2648 16.6143C10.2764 16.6257 10.2878 16.6373 10.2994 16.6373H11.1145C11.1261 16.6373 11.1491 16.6257 11.1491 16.6143C11.3186 16.2833 11.4757 15.946 11.6199 15.6033C12.0907 14.477 12.481 13.42 12.7683 12.4549C12.7683 12.4435 12.7683 12.4319 12.7567 12.4205C12.7337 12.3976 12.7224 12.3976 12.7107 12.3976ZM15.4667 12.386H13.2964C13.2845 12.3868 13.2733 12.3919 13.2648 12.4003C13.2564 12.4088 13.2513 12.42 13.2505 12.4319V15.4538C13.2505 15.4768 13.2734 15.4997 13.2964 15.4997H14.0315C14.0542 15.4997 14.0775 15.4768 14.0775 15.4538V13.1097H15.214C15.2256 13.1097 15.2486 13.0984 15.2486 13.0868C15.3405 12.88 15.4207 12.6616 15.5126 12.4435V12.4089C15.4897 12.3976 15.4783 12.386 15.4667 12.386Z" fill="#FF1743"/>
<path d="M3.91568 7.74374C2.85919 7.74374 2.44595 8.2032 2.44595 9.36374C2.44595 10.5473 2.85946 11.007 3.91568 11.007C4.98351 11.007 5.39676 10.5473 5.39676 9.36374C5.39676 8.2032 4.98351 7.74374 3.91568 7.74374ZM3.91568 10.3405C3.43351 10.3405 3.28405 10.214 3.28405 9.38671C3.28405 8.51374 3.44486 8.4332 3.91568 8.4332C4.39811 8.4332 4.55892 8.51347 4.55892 9.38671C4.55892 10.2027 4.40946 10.3405 3.91568 10.3405ZM8.33676 10.214C8.33637 10.208 8.33383 10.2024 8.3296 10.1982C8.32537 10.194 8.31975 10.1914 8.31378 10.191H8.27919C8.0954 10.26 7.76243 10.3059 7.53297 10.3059C7.01621 10.3059 6.77486 10.1681 6.77486 9.38698C6.77486 8.75455 6.84378 8.46752 7.53297 8.46752C7.72811 8.46752 7.90054 8.4905 8.13 8.55941C8.15297 8.55941 8.16432 8.55941 8.17594 8.53644L8.47432 7.93914V7.90455C8.47394 7.89858 8.4714 7.89296 8.46717 7.88873C8.46294 7.8845 8.45732 7.88196 8.45135 7.88158C8.13493 7.78542 7.80637 7.73509 7.47567 7.73212C6.40757 7.73212 5.92513 8.23752 5.92513 9.37536C5.92513 10.524 6.40757 11.0413 7.4754 11.0413C7.73946 11.0413 8.27919 10.9837 8.53189 10.8805C8.55486 10.8689 8.56621 10.8459 8.55486 10.8229L8.33676 10.214ZM0.045946 7.83563C0.0340308 7.83645 0.0228148 7.84155 0.0143696 7.85C0.0059243 7.85844 0.000820238 7.86966 0 7.88158V10.9032C0 10.9264 0.022973 10.9491 0.045946 10.9491H0.781081C0.803784 10.9491 0.827027 10.9264 0.827027 10.9032V8.55941H1.96351C1.97513 8.55941 1.99811 8.54806 1.99811 8.53644C2.09 8.32968 2.17027 8.11131 2.26216 7.8932V7.8586C2.25054 7.84698 2.23919 7.83563 2.22757 7.83563H0.045946Z" fill="#0D4CD3"/>
<path fill-rule="evenodd" clip-rule="evenodd" d="M22.0461 15.1784V15.1325C22.0461 15.1095 22.0461 15.0749 22.0577 15.0519C22.092 14.6268 22.115 14.1098 22.138 13.5122V13.4662L22.1609 12.1795C22.1609 11.7314 22.1496 11.2946 22.138 10.8925V10.8465L22.0577 9.30706C22.0577 9.28381 22.0577 9.24949 22.0461 9.22652V9.18057C22.0461 9.13462 22.0347 9.10003 22.0347 9.05408V9.00814C22.0001 8.56003 21.9771 8.28435 21.9658 8.26138C21.9658 8.21543 21.9542 8.16949 21.9542 8.13489V8.10057C21.9444 8.02299 21.929 7.94621 21.9082 7.87084C21.9082 7.85922 21.9082 7.8476 21.8969 7.83625C21.7017 6.90543 21.185 5.883 20.5417 5.113C20.2893 4.81435 20.025 4.55003 19.7496 4.34327C18.7121 3.57832 17.6349 2.86877 16.5225 2.2176C14.8347 1.21787 13.319 0.528409 13.1239 0.436517C13.1123 0.436517 13.1123 0.425166 13.1123 0.425166C12.6644 0.22976 12.1247 0.0919224 11.5393 0.0346251C11.4244 0.0230035 11.3096 0.0116521 11.1947 0.0116521C11.0912 0.0116521 10.988 3.05176e-05 10.8847 3.05176e-05H10.7239C9.93147 0.0116521 9.20823 0.160841 8.6339 0.425166C8.54201 0.45976 7.01498 1.1603 5.28093 2.17165L5.21201 2.20598C4.10402 2.86823 3.02728 3.58142 1.98526 4.34327C1.54904 4.66489 1.1585 5.07841 0.802553 5.60706C0.722282 5.73354 0.722282 6.03219 1.06661 6.03219H1.95093C2.32985 6.03219 2.42174 5.80246 2.84661 5.49219C3.31742 5.1476 4.24742 4.45814 5.94688 3.44706C7.17552 2.72327 8.3239 2.16003 8.87498 1.89571C8.8866 1.89571 8.89796 1.88435 8.90958 1.88435C8.90958 1.88435 8.92093 1.88435 8.92093 1.873C8.92093 1.873 8.93255 1.873 8.93255 1.86138C8.9439 1.86138 8.95552 1.85003 8.95552 1.85003C8.96688 1.85003 8.9785 1.83841 8.98985 1.83841C9.12769 1.76949 9.21958 1.7349 9.21958 1.7349C9.61012 1.56273 10.1612 1.44787 10.7466 1.43625H10.9763C11.1488 1.43625 11.3209 1.44787 11.4817 1.47084C11.8377 1.51679 12.1593 1.58571 12.4234 1.70057C12.4463 1.71192 12.4807 1.72354 12.5036 1.7349C13.6252 2.25674 14.7213 2.8319 15.788 3.45841C16.8549 4.08797 17.8896 4.77062 18.8882 5.50381C19.1063 5.66462 19.3247 5.89435 19.5315 6.14706C20.048 6.81354 20.4728 7.72138 20.5417 8.42219C20.5417 8.43381 20.5763 8.70949 20.6107 9.18057C20.6107 9.21489 20.6107 9.23787 20.6223 9.27246V9.34138C20.6223 9.38733 20.6336 9.42192 20.6336 9.46787V9.51381C20.6336 9.53679 20.6336 9.57111 20.6453 9.59408C20.6453 9.65165 20.6566 9.70895 20.6566 9.76652C20.6566 9.80111 20.6566 9.83543 20.6682 9.87003V9.893C20.6682 9.93895 20.6682 9.97327 20.6796 10.0192V10.1111C20.7571 11.4814 20.7571 12.8544 20.6796 14.2246V14.3165C20.6796 14.3625 20.6796 14.3971 20.6682 14.443V14.466C20.6682 14.5003 20.6682 14.5349 20.6566 14.5692C20.6566 14.6268 20.6453 14.6844 20.6453 14.7416C20.6453 14.7762 20.6453 14.7992 20.6336 14.8222V14.8681C20.6336 14.9141 20.6223 14.9484 20.6223 14.9944V15.0635C20.6223 15.0979 20.6223 15.1325 20.6107 15.1554C20.5763 15.6265 20.5417 15.9135 20.5417 15.9135C20.4728 16.6146 20.048 17.5222 19.5312 18.1887C19.3247 18.453 19.1063 18.6714 18.8882 18.8319C18.8769 18.8319 18.5782 19.0619 18.0844 19.4065C16.3342 20.6209 14.4823 21.682 12.5496 22.5779L12.5036 22.6008C12.4807 22.6125 12.4463 22.6238 12.4234 22.6354C12.1593 22.7387 11.8377 22.8192 11.4817 22.8652C11.3209 22.8881 11.1488 22.8995 10.9763 22.8995H10.7466C10.1612 22.8881 9.61012 22.7846 9.21958 22.6008C9.21958 22.6008 9.13931 22.5665 8.98985 22.4973C8.9785 22.486 8.95552 22.486 8.9439 22.4744C8.93255 22.463 8.92093 22.463 8.90958 22.4514C8.89796 22.4514 8.89796 22.44 8.8866 22.44C8.87498 22.44 8.86363 22.4284 8.85228 22.4284C8.84066 22.4171 8.82931 22.4171 8.80633 22.4054H8.79471C7.8201 21.9415 6.86605 21.4355 5.93525 20.8889C4.22444 19.8892 3.3058 19.1884 2.83525 18.8435C2.41012 18.5333 2.31823 18.3035 1.93931 18.3035H1.06661C0.722282 18.3035 0.722282 18.6025 0.802553 18.7171C1.1585 19.246 1.54904 19.6595 1.98526 19.9811C2.04282 20.0271 3.44363 21.0611 5.21228 22.1068C5.3039 22.1644 5.39579 22.2216 5.49904 22.2676C7.1412 23.2098 8.55363 23.8533 8.63417 23.8992C9.1966 24.1519 9.93147 24.3014 10.7125 24.3244H10.8731C10.9766 24.3244 11.0798 24.3244 11.1831 24.3127C11.298 24.3127 11.4128 24.3014 11.5277 24.2898C12.1134 24.2325 12.6644 24.0946 13.1007 23.8992C13.1007 23.8992 13.1123 23.8992 13.1123 23.8879C13.3074 23.796 14.8231 23.0949 16.5112 22.1068C17.3202 21.6278 18.113 21.1219 18.8882 20.59L19.738 19.9811C20.0136 19.7744 20.2777 19.51 20.5304 19.2114C21.1736 18.4414 21.6901 17.4189 21.8853 16.4881C21.8853 16.4768 21.8853 16.4652 21.8969 16.4538C21.9082 16.3733 21.9312 16.2927 21.9428 16.2241V16.1892C21.9542 16.1433 21.9542 16.0973 21.9542 16.0627C21.9542 16.0398 21.9888 15.7641 22.0231 15.316V15.27C22.0461 15.2584 22.0461 15.2127 22.0461 15.1784Z" fill="url(#paint0_linear_21_14278)"/>
<path d="M9.08951 12.3862H6.8387C6.81573 12.3862 6.80438 12.3979 6.79276 12.4208C6.73546 13.4433 6.54032 14.5349 6.26465 15.4311C6.26465 15.4424 6.26465 15.4541 6.276 15.4654C6.28762 15.477 6.29897 15.477 6.31059 15.477H7.08005C7.10276 15.477 7.11438 15.4654 7.11438 15.4541C7.33249 14.7649 7.50492 13.8684 7.57384 13.11H8.3087V15.4424C8.3087 15.4654 8.33168 15.4884 8.35465 15.4884H9.08951C9.11249 15.4884 9.13546 15.4654 9.13546 15.4424V12.4208C9.13546 12.4092 9.11249 12.3862 9.08951 12.3862Z" fill="#EF3054"/>
<defs>
<linearGradient id="paint0_linear_21_14278" x1="11.3501" y1="3.05176e-05" x2="11.3501" y2="24.3243" gradientUnits="userSpaceOnUse">
<stop offset="0.4" stop-color="#0D4CD3"/>
<stop offset="0.66" stop-color="#FF1743"/>
</linearGradient>
</defs>
</svg>
