<svg width="25" height="25" viewBox="0 0 25 25" fill="none" xmlns="http://www.w3.org/2000/svg">
<path d="M0 11.6757C0 6.17171 0 3.41973 1.70986 1.70986C3.41973 0 6.17171 0 11.6757 0H12.6486C18.1526 0 20.9046 0 22.6145 1.70986C24.3243 3.41973 24.3243 6.17171 24.3243 11.6757V12.6486C24.3243 18.1526 24.3243 20.9046 22.6145 22.6145C20.9046 24.3243 18.1526 24.3243 12.6486 24.3243H11.6757C6.17171 24.3243 3.41973 24.3243 1.70986 22.6145C0 20.9046 0 18.1526 0 12.6486V11.6757Z" fill="#0077FF"/>
<path d="M12.9423 17.5237C7.39838 17.5237 4.23625 13.723 4.10449 7.39871H6.88151C6.97273 12.0406 9.01998 14.0068 10.6416 14.4122V7.39871H13.2565V11.4021C14.8579 11.2298 16.5401 9.40547 17.1077 7.39871H19.7226C19.2868 9.87169 17.4625 11.696 16.1652 12.446C17.4625 13.0541 19.5403 14.6453 20.3309 17.5237H17.4524C16.8341 15.598 15.2937 14.1082 13.2565 13.9055V17.5237H12.9423Z" fill="white"/>
</svg>
