<svg width="29" height="36" viewBox="0 0 29 36" fill="none" xmlns="http://www.w3.org/2000/svg">
<path d="M14.1404 19.4431C13.6023 19.4368 13.0751 19.5955 12.6299 19.8979C12.1847 20.2002 11.8429 20.6317 11.6503 21.1343C11.4578 21.6368 11.4238 22.1863 11.553 22.7087C11.6822 23.2312 11.9683 23.7015 12.3729 24.0564V26.5133C12.3729 26.9821 12.5591 27.4317 12.8906 27.7631C13.2221 28.0946 13.6716 28.2808 14.1404 28.2808C14.6092 28.2808 15.0588 28.0946 15.3903 27.7631C15.7217 27.4317 15.908 26.9821 15.908 26.5133V24.0564C16.3125 23.7015 16.5987 23.2312 16.7279 22.7087C16.857 22.1863 16.8231 21.6368 16.6305 21.1343C16.438 20.6317 16.0961 20.2002 15.6509 19.8979C15.2057 19.5955 14.6786 19.4368 14.1404 19.4431ZM22.9782 12.3729V8.83776C22.9782 6.49384 22.0471 4.24592 20.3897 2.58852C18.7323 0.931119 16.4843 0 14.1404 0C11.7965 0 9.54858 0.931119 7.89118 2.58852C6.23378 4.24592 5.30266 6.49384 5.30266 8.83776V12.3729C3.89631 12.3729 2.54755 12.9315 1.55311 13.926C0.558671 14.9204 0 16.2692 0 17.6755V30.0484C0 31.4547 0.558671 32.8035 1.55311 33.7979C2.54755 34.7924 3.89631 35.351 5.30266 35.351H22.9782C24.3845 35.351 25.7333 34.7924 26.7277 33.7979C27.7222 32.8035 28.2808 31.4547 28.2808 30.0484V17.6755C28.2808 16.2692 27.7222 14.9204 26.7277 13.926C25.7333 12.9315 24.3845 12.3729 22.9782 12.3729ZM8.83776 8.83776C8.83776 7.43141 9.39643 6.08266 10.3909 5.08822C11.3853 4.09378 12.7341 3.5351 14.1404 3.5351C15.5468 3.5351 16.8955 4.09378 17.89 5.08822C18.8844 6.08266 19.4431 7.43141 19.4431 8.83776V12.3729H8.83776V8.83776ZM24.7457 30.0484C24.7457 30.5172 24.5595 30.9668 24.228 31.2982C23.8966 31.6297 23.447 31.8159 22.9782 31.8159H5.30266C4.83387 31.8159 4.38429 31.6297 4.05281 31.2982C3.72133 30.9668 3.53511 30.5172 3.53511 30.0484V17.6755C3.53511 17.2067 3.72133 16.7572 4.05281 16.4257C4.38429 16.0942 4.83387 15.908 5.30266 15.908H22.9782C23.447 15.908 23.8966 16.0942 24.228 16.4257C24.5595 16.7572 24.7457 17.2067 24.7457 17.6755V30.0484Z" fill="#1A1A1A"/>
</svg>
